REM DIRINDEX 1\2\6,1\2\7,1\2\8,1\2\9,1\3\10,1\3\11,1\4\12,1\4\13,1\4\14,1\5\15,1\5\16,1\5\17
REM DIRNAME cjc029,folder01,folder02,folder03,folder04,folder05,folder06,folder07,folder08,folder09,folder10,folder11,folder12,folder13,folder14,folder15,folder16
TITLE ""
FILE "1400_2_sec05_0416_0432.mp3" MP3
  TRACK 01 AUDIO
    TITLE "0:"
    INDEX 01 00:00:00
  TRACK 02 AUDIO
    TITLE "13:cjc029_2415"
    INDEX 01 00:00:23
  TRACK 03 AUDIO
    TITLE "0:"
    INDEX 01 00:01:30
  TRACK 04 AUDIO
    TITLE "14:cjc029_2416"
    INDEX 01 00:01:34
  TRACK 05 AUDIO
    TITLE "0:"
    INDEX 01 00:05:03
  TRACK 06 AUDIO
    TITLE "13:cjc029_2417"
    INDEX 01 00:05:61
  TRACK 07 AUDIO
    TITLE "0:"
    INDEX 01 00:07:00
  TRACK 08 AUDIO
    TITLE "14:cjc029_2418"
    INDEX 01 00:07:03
  TRACK 09 AUDIO
    TITLE "0:"
    INDEX 01 00:10:19
  TRACK 10 AUDIO
    TITLE "13:cjc029_2419"
    INDEX 01 00:11:01
  TRACK 11 AUDIO
    TITLE "0:"
    INDEX 01 00:12:09
  TRACK 12 AUDIO
    TITLE "14:cjc029_2420"
    INDEX 01 00:12:14
  TRACK 13 AUDIO
    TITLE "0:"
    INDEX 01 00:14:37
  TRACK 14 AUDIO
    TITLE "13:cjc029_2421"
    INDEX 01 00:15:19
  TRACK 15 AUDIO
    TITLE "0:"
    INDEX 01 00:16:38
  TRACK 16 AUDIO
    TITLE "14:cjc029_2422"
    INDEX 01 00:16:42
  TRACK 17 AUDIO
    TITLE "0:"
    INDEX 01 00:19:36
  TRACK 18 AUDIO
    TITLE "13:cjc029_2423"
    INDEX 01 00:20:22
  TRACK 19 AUDIO
    TITLE "0:"
    INDEX 01 00:21:51
  TRACK 20 AUDIO
    TITLE "14:cjc029_2424"
    INDEX 01 00:21:55
  TRACK 21 AUDIO
    TITLE "0:"
    INDEX 01 00:25:54
  TRACK 22 AUDIO
    TITLE "13:cjc029_2425"
    INDEX 01 00:26:36
  TRACK 23 AUDIO
    TITLE "0:"
    INDEX 01 00:27:49
  TRACK 24 AUDIO
    TITLE "14:cjc029_2426"
    INDEX 01 00:27:55
  TRACK 25 AUDIO
    TITLE "0:"
    INDEX 01 00:29:01
  TRACK 26 AUDIO
    TITLE "13:cjc029_2427"
    INDEX 01 00:29:56
  TRACK 27 AUDIO
    TITLE "0:"
    INDEX 01 00:30:71
  TRACK 28 AUDIO
    TITLE "14:cjc029_2428"
    INDEX 01 00:31:02
  TRACK 29 AUDIO
    TITLE "0:"
    INDEX 01 00:34:57
  TRACK 30 AUDIO
    TITLE "13:cjc029_2429"
    INDEX 01 00:35:39
  TRACK 31 AUDIO
    TITLE "0:"
    INDEX 01 00:36:54
  TRACK 32 AUDIO
    TITLE "14:cjc029_2430"
    INDEX 01 00:36:62
  TRACK 33 AUDIO
    TITLE "0:"
    INDEX 01 00:39:35
  TRACK 34 AUDIO
    TITLE "13:cjc029_2431"
    INDEX 01 00:40:19
  TRACK 35 AUDIO
    TITLE "0:"
    INDEX 01 00:41:28
  TRACK 36 AUDIO
    TITLE "14:cjc029_2432"
    INDEX 01 00:41:34
  TRACK 37 AUDIO
    TITLE "0:"
    INDEX 01 00:42:72
  TRACK 38 AUDIO
    TITLE "13:cjc029_2433"
    INDEX 01 00:43:54
  TRACK 39 AUDIO
    TITLE "0:"
    INDEX 01 00:44:69
  TRACK 40 AUDIO
    TITLE "14:cjc029_2434"
    INDEX 01 00:44:73
  TRACK 41 AUDIO
    TITLE "0:"
    INDEX 01 00:45:73
  TRACK 42 AUDIO
    TITLE "13:cjc029_2435"
    INDEX 01 00:46:54
  TRACK 43 AUDIO
    TITLE "0:"
    INDEX 01 00:47:58
  TRACK 44 AUDIO
    TITLE "14:cjc029_2436"
    INDEX 01 00:47:62
  TRACK 45 AUDIO
    TITLE "0:"
    INDEX 01 00:52:06
  TRACK 46 AUDIO
    TITLE "13:cjc029_2437"
    INDEX 01 00:52:63
  TRACK 47 AUDIO
    TITLE "0:"
    INDEX 01 00:53:74
  TRACK 48 AUDIO
    TITLE "14:cjc029_2438"
    INDEX 01 00:54:05
  TRACK 49 AUDIO
    TITLE "0:"
    INDEX 01 00:55:28
  TRACK 50 AUDIO
    TITLE "13:cjc029_2439"
    INDEX 01 00:56:10
  TRACK 51 AUDIO
    TITLE "0:"
    INDEX 01 00:57:09
  TRACK 52 AUDIO
    TITLE "14:cjc029_2440"
    INDEX 01 00:57:15
  TRACK 53 AUDIO
    TITLE "0:"
    INDEX 01 00:58:34
  TRACK 54 AUDIO
    TITLE "13:cjc029_2441"
    INDEX 01 00:59:16
  TRACK 55 AUDIO
    TITLE "0:"
    INDEX 01 01:00:15
  TRACK 56 AUDIO
    TITLE "14:cjc029_2442"
    INDEX 01 01:00:19
  TRACK 57 AUDIO
    TITLE "0:"
    INDEX 01 01:02:63
  TRACK 58 AUDIO
    TITLE "13:cjc029_2443"
    INDEX 01 01:03:45
  TRACK 59 AUDIO
    TITLE "0:"
    INDEX 01 01:04:48
  TRACK 60 AUDIO
    TITLE "14:cjc029_2444"
    INDEX 01 01:04:54
  TRACK 61 AUDIO
    TITLE "0:"
    INDEX 01 01:05:69
  TRACK 62 AUDIO
    TITLE "13:cjc029_2445"
    INDEX 01 01:06:51
  TRACK 63 AUDIO
    TITLE "0:"
    INDEX 01 01:07:55
  TRACK 64 AUDIO
    TITLE "14:cjc029_2446"
    INDEX 01 01:07:59
  TRACK 65 AUDIO
    TITLE "0:"
    INDEX 01 01:11:58
  TRACK 66 AUDIO
    TITLE "13:cjc029_2447"
    INDEX 01 01:12:40
  TRACK 67 AUDIO
    TITLE "0:"
    INDEX 01 01:13:51
  TRACK 68 AUDIO
    TITLE "14:cjc029_2448"
    INDEX 01 01:13:57
  TRACK 69 AUDIO
    TITLE "0:"
    INDEX 01 01:14:61
